<svg xmlns="http://www.w3.org/2000/svg" width="1000" height="282" viewBox="0 0 1000 282" role="img" aria-label="Harsha Pilli, Java and Spring Boot developer. Three years of production delivery before the degree, now completing a Master of Applied Computer Science at Dalhousie University in Halifax. Available for a 4 or 8 month developer co-op from January 2027.">
  <defs>
    <filter id="grain" x="0" y="0" width="100%" height="100%">
      <feTurbulence type="fractalNoise" baseFrequency="0.95" numOctaves="4" seed="31" result="n"/>
      <feColorMatrix in="n" type="saturate" values="0"/>
      <feComponentTransfer><feFuncA type="linear" slope="0.055"/></feComponentTransfer>
    </filter>
    <filter id="lift" x="-16%" y="-20%" width="132%" height="144%">
      <feDropShadow dx="0" dy="2.5" stdDeviation="4" flood-color="#4A4132" flood-opacity="0.22"/>
    </filter>
    <pattern id="laid" width="5" height="5" patternUnits="userSpaceOnUse">
      <line x1="0" y1="0.5" x2="5" y2="0.5" stroke="#6B5F45" stroke-opacity="0.045" stroke-width="0.6"/>
    </pattern>
  </defs>
  <g font-family="Georgia, 'Times New Roman', serif">
  <path d="M 18.0,16.3 L 33.2,16.5 L 48.4,17.7 L 63.6,17.8 L 78.8,16.8 L 93.9,17.2 L 109.1,17.6 L 124.3,16.1 L 139.5,17.9 L 154.7,17.5 L 169.9,15.9 L 185.1,16.7 L 200.2,16.5 L 215.4,17.7 L 230.6,17.3 L 245.8,17.8 L 261.0,16.8 L 276.2,17.0 L 291.4,17.1 L 306.6,17.7 L 321.8,16.3 L 336.9,16.5 L 352.1,17.3 L 367.3,16.5 L 382.5,16.1 L 397.7,16.2 L 412.9,17.9 L 428.1,18.0 L 443.2,16.3 L 458.4,17.0 L 473.6,16.0 L 488.8,18.1 L 504.0,16.3 L 519.2,17.3 L 534.4,16.1 L 549.6,17.6 L 564.8,16.4 L 579.9,17.7 L 595.1,16.3 L 610.3,17.1 L 625.5,17.9 L 640.7,18.0 L 655.9,17.2 L 671.1,17.0 L 686.2,16.7 L 701.4,16.7 L 716.6,18.1 L 731.8,17.5 L 747.0,16.4 L 762.2,16.6 L 777.4,17.9 L 792.6,16.2 L 807.8,15.9 L 822.9,15.9 L 838.1,17.2 L 853.3,16.8 L 868.5,16.9 L 883.7,16.6 L 898.9,17.2 L 914.1,16.0 L 929.2,17.3 L 944.4,16.4 L 959.6,18.0 L 974.8,16.5 L 991.8,19.0 L 991.8,34.9 L 992.2,50.8 L 992.1,66.6 L 991.1,82.5 L 992.8,98.4 L 992.4,114.2 L 993.1,130.1 L 991.2,146.0 L 991.3,161.9 L 993.0,177.8 L 991.9,193.6 L 991.5,209.5 L 991.9,225.4 L 991.2,241.2 L 991.7,257.1 L 990.0,274.9 L 974.8,275.0 L 959.6,274.6 L 944.4,275.4 L 929.2,274.4 L 914.1,274.6 L 898.9,274.7 L 883.7,275.5 L 868.5,274.7 L 853.3,274.3 L 838.1,275.5 L 822.9,274.6 L 807.8,274.6 L 792.6,274.3 L 777.4,275.4 L 762.2,275.2 L 747.0,274.0 L 731.8,275.1 L 716.6,275.0 L 701.4,275.8 L 686.2,275.1 L 671.1,274.6 L 655.9,275.1 L 640.7,275.8 L 625.5,275.9 L 610.3,276.1 L 595.1,274.7 L 579.9,275.3 L 564.8,275.7 L 549.6,275.3 L 534.4,274.7 L 519.2,275.6 L 504.0,273.9 L 488.8,275.0 L 473.6,275.5 L 458.4,274.1 L 443.2,275.9 L 428.1,274.2 L 412.9,274.0 L 397.7,276.0 L 382.5,274.6 L 367.3,275.2 L 352.1,275.9 L 336.9,276.0 L 321.8,275.6 L 306.6,275.3 L 291.4,274.8 L 276.2,274.0 L 261.0,275.8 L 245.8,274.0 L 230.6,275.9 L 215.4,274.2 L 200.2,275.6 L 185.1,275.0 L 169.9,275.4 L 154.7,274.5 L 139.5,275.8 L 124.3,275.3 L 109.1,274.5 L 93.9,275.1 L 78.8,274.8 L 63.6,276.1 L 48.4,274.7 L 33.2,275.5 L 15.0,273.0 L 16.8,257.1 L 14.9,241.2 L 15.7,225.4 L 15.5,209.5 L 15.4,193.6 L 15.2,177.8 L 15.2,161.9 L 15.6,146.0 L 16.7,130.1 L 16.1,114.2 L 15.0,98.4 L 16.2,82.5 L 14.9,66.6 L 16.0,50.8 L 16.0,34.9 Z" fill="#F0EADC" stroke="#DCD3BF" stroke-width="1" filter="url(#lift)"/>
  <path d="M 14.0,13.0 L 29.2,11.0 L 44.4,11.0 L 59.6,12.8 L 74.8,12.5 L 89.9,12.4 L 105.1,11.6 L 120.3,12.2 L 135.5,12.2 L 150.7,12.2 L 165.9,11.2 L 181.1,11.8 L 196.2,11.8 L 211.4,12.5 L 226.6,13.1 L 241.8,13.0 L 257.0,12.1 L 272.2,11.9 L 287.4,11.5 L 302.6,10.9 L 317.8,10.9 L 332.9,11.9 L 348.1,11.6 L 363.3,11.7 L 378.5,12.9 L 393.7,12.1 L 408.9,12.1 L 424.1,11.4 L 439.2,10.9 L 454.4,11.6 L 469.6,11.2 L 484.8,12.0 L 500.0,13.1 L 515.2,12.4 L 530.4,11.3 L 545.6,12.9 L 560.8,12.7 L 575.9,12.5 L 591.1,12.9 L 606.3,12.6 L 621.5,12.7 L 636.7,11.7 L 651.9,13.1 L 667.1,13.1 L 682.2,11.2 L 697.4,12.6 L 712.6,12.5 L 727.8,11.9 L 743.0,12.1 L 758.2,12.0 L 773.4,13.0 L 788.6,12.0 L 803.8,12.8 L 818.9,11.7 L 834.1,12.9 L 849.3,12.9 L 864.5,11.9 L 879.7,12.2 L 894.9,13.0 L 910.1,12.5 L 925.2,12.0 L 940.4,11.4 L 955.6,11.6 L 970.8,12.5 L 988.8,14.0 L 987.1,29.9 L 988.5,45.8 L 987.1,61.6 L 988.4,77.5 L 986.9,93.4 L 987.5,109.2 L 988.0,125.1 L 988.0,141.0 L 987.7,156.9 L 987.8,172.8 L 988.4,188.6 L 988.7,204.5 L 988.0,220.4 L 987.0,236.2 L 987.7,252.1 L 986.0,271.0 L 970.8,269.3 L 955.6,269.5 L 940.4,269.1 L 925.2,270.7 L 910.1,269.4 L 894.9,271.0 L 879.7,269.6 L 864.5,270.5 L 849.3,270.6 L 834.1,269.1 L 818.9,270.9 L 803.8,269.9 L 788.6,269.2 L 773.4,270.6 L 758.2,270.7 L 743.0,269.1 L 727.8,270.2 L 712.6,269.5 L 697.4,271.1 L 682.2,270.3 L 667.1,270.8 L 651.9,269.6 L 636.7,271.0 L 621.5,269.0 L 606.3,271.1 L 591.1,269.5 L 575.9,271.1 L 560.8,270.6 L 545.6,269.3 L 530.4,270.8 L 515.2,270.7 L 500.0,269.6 L 484.8,270.3 L 469.6,271.1 L 454.4,268.9 L 439.2,270.8 L 424.1,271.1 L 408.9,270.4 L 393.7,269.7 L 378.5,269.4 L 363.3,270.9 L 348.1,270.4 L 332.9,271.1 L 317.8,270.1 L 302.6,269.4 L 287.4,269.4 L 272.2,269.1 L 257.0,269.4 L 241.8,269.2 L 226.6,269.5 L 211.4,270.1 L 196.2,270.6 L 181.1,269.6 L 165.9,270.4 L 150.7,270.9 L 135.5,270.1 L 120.3,269.1 L 105.1,270.9 L 89.9,269.8 L 74.8,270.2 L 59.6,270.0 L 44.4,270.8 L 29.2,268.9 L 11.4,268.0 L 12.2,252.1 L 11.8,236.2 L 10.9,220.4 L 12.1,204.5 L 11.2,188.6 L 11.0,172.8 L 10.9,156.9 L 11.2,141.0 L 11.1,125.1 L 12.3,109.2 L 12.0,93.4 L 13.1,77.5 L 13.0,61.6 L 13.1,45.8 L 11.4,29.9 Z" fill="#FCF9F2" filter="url(#lift)"/>
  <clipPath id="c2"><path d="M 14.0,13.0 L 29.2,11.0 L 44.4,11.0 L 59.6,12.8 L 74.8,12.5 L 89.9,12.4 L 105.1,11.6 L 120.3,12.2 L 135.5,12.2 L 150.7,12.2 L 165.9,11.2 L 181.1,11.8 L 196.2,11.8 L 211.4,12.5 L 226.6,13.1 L 241.8,13.0 L 257.0,12.1 L 272.2,11.9 L 287.4,11.5 L 302.6,10.9 L 317.8,10.9 L 332.9,11.9 L 348.1,11.6 L 363.3,11.7 L 378.5,12.9 L 393.7,12.1 L 408.9,12.1 L 424.1,11.4 L 439.2,10.9 L 454.4,11.6 L 469.6,11.2 L 484.8,12.0 L 500.0,13.1 L 515.2,12.4 L 530.4,11.3 L 545.6,12.9 L 560.8,12.7 L 575.9,12.5 L 591.1,12.9 L 606.3,12.6 L 621.5,12.7 L 636.7,11.7 L 651.9,13.1 L 667.1,13.1 L 682.2,11.2 L 697.4,12.6 L 712.6,12.5 L 727.8,11.9 L 743.0,12.1 L 758.2,12.0 L 773.4,13.0 L 788.6,12.0 L 803.8,12.8 L 818.9,11.7 L 834.1,12.9 L 849.3,12.9 L 864.5,11.9 L 879.7,12.2 L 894.9,13.0 L 910.1,12.5 L 925.2,12.0 L 940.4,11.4 L 955.6,11.6 L 970.8,12.5 L 988.8,14.0 L 987.1,29.9 L 988.5,45.8 L 987.1,61.6 L 988.4,77.5 L 986.9,93.4 L 987.5,109.2 L 988.0,125.1 L 988.0,141.0 L 987.7,156.9 L 987.8,172.8 L 988.4,188.6 L 988.7,204.5 L 988.0,220.4 L 987.0,236.2 L 987.7,252.1 L 986.0,271.0 L 970.8,269.3 L 955.6,269.5 L 940.4,269.1 L 925.2,270.7 L 910.1,269.4 L 894.9,271.0 L 879.7,269.6 L 864.5,270.5 L 849.3,270.6 L 834.1,269.1 L 818.9,270.9 L 803.8,269.9 L 788.6,269.2 L 773.4,270.6 L 758.2,270.7 L 743.0,269.1 L 727.8,270.2 L 712.6,269.5 L 697.4,271.1 L 682.2,270.3 L 667.1,270.8 L 651.9,269.6 L 636.7,271.0 L 621.5,269.0 L 606.3,271.1 L 591.1,269.5 L 575.9,271.1 L 560.8,270.6 L 545.6,269.3 L 530.4,270.8 L 515.2,270.7 L 500.0,269.6 L 484.8,270.3 L 469.6,271.1 L 454.4,268.9 L 439.2,270.8 L 424.1,271.1 L 408.9,270.4 L 393.7,269.7 L 378.5,269.4 L 363.3,270.9 L 348.1,270.4 L 332.9,271.1 L 317.8,270.1 L 302.6,269.4 L 287.4,269.4 L 272.2,269.1 L 257.0,269.4 L 241.8,269.2 L 226.6,269.5 L 211.4,270.1 L 196.2,270.6 L 181.1,269.6 L 165.9,270.4 L 150.7,270.9 L 135.5,270.1 L 120.3,269.1 L 105.1,270.9 L 89.9,269.8 L 74.8,270.2 L 59.6,270.0 L 44.4,270.8 L 29.2,268.9 L 11.4,268.0 L 12.2,252.1 L 11.8,236.2 L 10.9,220.4 L 12.1,204.5 L 11.2,188.6 L 11.0,172.8 L 10.9,156.9 L 11.2,141.0 L 11.1,125.1 L 12.3,109.2 L 12.0,93.4 L 13.1,77.5 L 13.0,61.6 L 13.1,45.8 L 11.4,29.9 Z"/></clipPath>
  <g clip-path="url(#c2)">
  <rect x="12.0" y="12.0" width="976.0" height="34.0" rx="0" fill="#F5F0E4"/>
  <line x1="12.0" y1="46.0" x2="988.0" y2="46.0" stroke="#DCD3BF" stroke-width="1"/>
  <rect x="12" y="12" width="976" height="258" fill="url(#laid)"/>
  <rect x="12" y="12" width="976" height="258" filter="url(#grain)"/>
  <line x1="12.0" y1="13.2" x2="988.0" y2="13.2" stroke="#FFFDF8" stroke-width="1.4"/>
  <line x1="12.0" y1="268.8" x2="988.0" y2="268.8" stroke="#D9CFB9" stroke-width="1.4"/>
  </g>
  <path d="M 14.0,13.0 L 29.2,11.0 L 44.4,11.0 L 59.6,12.8 L 74.8,12.5 L 89.9,12.4 L 105.1,11.6 L 120.3,12.2 L 135.5,12.2 L 150.7,12.2 L 165.9,11.2 L 181.1,11.8 L 196.2,11.8 L 211.4,12.5 L 226.6,13.1 L 241.8,13.0 L 257.0,12.1 L 272.2,11.9 L 287.4,11.5 L 302.6,10.9 L 317.8,10.9 L 332.9,11.9 L 348.1,11.6 L 363.3,11.7 L 378.5,12.9 L 393.7,12.1 L 408.9,12.1 L 424.1,11.4 L 439.2,10.9 L 454.4,11.6 L 469.6,11.2 L 484.8,12.0 L 500.0,13.1 L 515.2,12.4 L 530.4,11.3 L 545.6,12.9 L 560.8,12.7 L 575.9,12.5 L 591.1,12.9 L 606.3,12.6 L 621.5,12.7 L 636.7,11.7 L 651.9,13.1 L 667.1,13.1 L 682.2,11.2 L 697.4,12.6 L 712.6,12.5 L 727.8,11.9 L 743.0,12.1 L 758.2,12.0 L 773.4,13.0 L 788.6,12.0 L 803.8,12.8 L 818.9,11.7 L 834.1,12.9 L 849.3,12.9 L 864.5,11.9 L 879.7,12.2 L 894.9,13.0 L 910.1,12.5 L 925.2,12.0 L 940.4,11.4 L 955.6,11.6 L 970.8,12.5 L 988.8,14.0 L 987.1,29.9 L 988.5,45.8 L 987.1,61.6 L 988.4,77.5 L 986.9,93.4 L 987.5,109.2 L 988.0,125.1 L 988.0,141.0 L 987.7,156.9 L 987.8,172.8 L 988.4,188.6 L 988.7,204.5 L 988.0,220.4 L 987.0,236.2 L 987.7,252.1 L 986.0,271.0 L 970.8,269.3 L 955.6,269.5 L 940.4,269.1 L 925.2,270.7 L 910.1,269.4 L 894.9,271.0 L 879.7,269.6 L 864.5,270.5 L 849.3,270.6 L 834.1,269.1 L 818.9,270.9 L 803.8,269.9 L 788.6,269.2 L 773.4,270.6 L 758.2,270.7 L 743.0,269.1 L 727.8,270.2 L 712.6,269.5 L 697.4,271.1 L 682.2,270.3 L 667.1,270.8 L 651.9,269.6 L 636.7,271.0 L 621.5,269.0 L 606.3,271.1 L 591.1,269.5 L 575.9,271.1 L 560.8,270.6 L 545.6,269.3 L 530.4,270.8 L 515.2,270.7 L 500.0,269.6 L 484.8,270.3 L 469.6,271.1 L 454.4,268.9 L 439.2,270.8 L 424.1,271.1 L 408.9,270.4 L 393.7,269.7 L 378.5,269.4 L 363.3,270.9 L 348.1,270.4 L 332.9,271.1 L 317.8,270.1 L 302.6,269.4 L 287.4,269.4 L 272.2,269.1 L 257.0,269.4 L 241.8,269.2 L 226.6,269.5 L 211.4,270.1 L 196.2,270.6 L 181.1,269.6 L 165.9,270.4 L 150.7,270.9 L 135.5,270.1 L 120.3,269.1 L 105.1,270.9 L 89.9,269.8 L 74.8,270.2 L 59.6,270.0 L 44.4,270.8 L 29.2,268.9 L 11.4,268.0 L 12.2,252.1 L 11.8,236.2 L 10.9,220.4 L 12.1,204.5 L 11.2,188.6 L 11.0,172.8 L 10.9,156.9 L 11.2,141.0 L 11.1,125.1 L 12.3,109.2 L 12.0,93.4 L 13.1,77.5 L 13.0,61.6 L 13.1,45.8 L 11.4,29.9 Z" fill="none" stroke="#DCD3BF" stroke-width="1"/>
  <rect x="27.0" y="25.5" width="7.0" height="7.0" rx="1" fill="#1155CC"/>
  <text x="41.0" y="33.0" font-size="10.5" fill="#1155CC" font-family="ui-monospace, SFMono-Regular, Menlo, Consolas, 'Liberation Mono', monospace">&lt;Hero /&gt;</text>
  <text x="973.0" y="32.5" font-size="9" fill="#A8563C" font-family="ui-monospace, SFMono-Regular, Menlo, Consolas, 'Liberation Mono', monospace" text-anchor="end">props: 6</text>
  <rect x="42.0" y="68.0" width="206.0" height="22.0" rx="2" fill="#E3E9F6"/>
  <text x="145.0" y="83.0" font-size="8.6" fill="#1155CC" text-anchor="middle" letter-spacing="1.5">AVAILABLE JANUARY 2027</text>
  <text x="42.0" y="140.0" font-size="42" fill="#12181B" font-weight="700">Harsha Pilli</text>
  <line x1="42.0" y1="152.0" x2="134.0" y2="152.0" stroke="#1155CC" stroke-width="2"/>
  <text x="42.0" y="174.0" font-size="13.5" fill="#697176">Java · Spring Boot · REST APIs · Cloud</text>
  <text x="42.0" y="202.0" font-size="12" fill="#394247">Three years of production delivery before the degree, not after it.</text>
  <text x="42.0" y="220.0" font-size="12" fill="#394247">Now completing a Master of Applied Computer Science at Dalhousie</text>
  <text x="42.0" y="238.0" font-size="12" fill="#394247">University in Halifax, and looking for a 4- or 8-month developer</text>
  <text x="42.0" y="256.0" font-size="12" fill="#394247">co-op starting January 2027.</text>
  <rect x="670.0" y="66.0" width="288.0" height="194.0" rx="2" fill="#F6F1E5" stroke="#DCD3BF" stroke-width="1"/>
  <text x="686.0" y="88.0" font-size="10" fill="#8A8578" font-family="ui-monospace, SFMono-Regular, Menlo, Consolas, 'Liberation Mono', monospace">&lt;</text>
  <text x="692.0" y="88.0" font-size="10" fill="#1155CC" font-family="ui-monospace, SFMono-Regular, Menlo, Consolas, 'Liberation Mono', monospace">Developer</text>
  <text x="686.0" y="105.0" font-size="10" fill="#9A6B2F" font-family="ui-monospace, SFMono-Regular, Menlo, Consolas, 'Liberation Mono', monospace">  name</text>
  <text x="722.0" y="105.0" font-size="10" fill="#8A8578" font-family="ui-monospace, SFMono-Regular, Menlo, Consolas, 'Liberation Mono', monospace">=</text>
  <text x="728.0" y="105.0" font-size="10" fill="#4F7A4A" font-family="ui-monospace, SFMono-Regular, Menlo, Consolas, 'Liberation Mono', monospace">"Harsha Pilli"</text>
  <text x="686.0" y="122.0" font-size="10" fill="#9A6B2F" font-family="ui-monospace, SFMono-Regular, Menlo, Consolas, 'Liberation Mono', monospace">  role</text>
  <text x="722.0" y="122.0" font-size="10" fill="#8A8578" font-family="ui-monospace, SFMono-Regular, Menlo, Consolas, 'Liberation Mono', monospace">=</text>
  <text x="728.0" y="122.0" font-size="10" fill="#4F7A4A" font-family="ui-monospace, SFMono-Regular, Menlo, Consolas, 'Liberation Mono', monospace">"Backend Developer"</text>
  <text x="686.0" y="139.0" font-size="10" fill="#9A6B2F" font-family="ui-monospace, SFMono-Regular, Menlo, Consolas, 'Liberation Mono', monospace">  stack</text>
  <text x="728.0" y="139.0" font-size="10" fill="#8A8578" font-family="ui-monospace, SFMono-Regular, Menlo, Consolas, 'Liberation Mono', monospace">={[</text>
  <text x="746.0" y="139.0" font-size="10" fill="#4F7A4A" font-family="ui-monospace, SFMono-Regular, Menlo, Consolas, 'Liberation Mono', monospace">'Java 17'</text>
  <text x="800.0" y="139.0" font-size="10" fill="#8A8578" font-family="ui-monospace, SFMono-Regular, Menlo, Consolas, 'Liberation Mono', monospace">,</text>
  <text x="686.0" y="156.0" font-size="10" fill="#4F7A4A" font-family="ui-monospace, SFMono-Regular, Menlo, Consolas, 'Liberation Mono', monospace">    'Spring Boot'</text>
  <text x="788.0" y="156.0" font-size="10" fill="#8A8578" font-family="ui-monospace, SFMono-Regular, Menlo, Consolas, 'Liberation Mono', monospace">, </text>
  <text x="800.0" y="156.0" font-size="10" fill="#4F7A4A" font-family="ui-monospace, SFMono-Regular, Menlo, Consolas, 'Liberation Mono', monospace">'AWS'</text>
  <text x="830.0" y="156.0" font-size="10" fill="#8A8578" font-family="ui-monospace, SFMono-Regular, Menlo, Consolas, 'Liberation Mono', monospace">]}</text>
  <text x="686.0" y="173.0" font-size="10" fill="#9A6B2F" font-family="ui-monospace, SFMono-Regular, Menlo, Consolas, 'Liberation Mono', monospace">  experience</text>
  <text x="758.0" y="173.0" font-size="10" fill="#8A8578" font-family="ui-monospace, SFMono-Regular, Menlo, Consolas, 'Liberation Mono', monospace">={</text>
  <text x="770.0" y="173.0" font-size="10" fill="#4F7A4A" font-family="ui-monospace, SFMono-Regular, Menlo, Consolas, 'Liberation Mono', monospace">3</text>
  <text x="776.0" y="173.0" font-size="10" fill="#8A8578" font-family="ui-monospace, SFMono-Regular, Menlo, Consolas, 'Liberation Mono', monospace">}</text>
  <text x="686.0" y="190.0" font-size="10" fill="#9A6B2F" font-family="ui-monospace, SFMono-Regular, Menlo, Consolas, 'Liberation Mono', monospace">  available</text>
  <text x="752.0" y="190.0" font-size="10" fill="#8A8578" font-family="ui-monospace, SFMono-Regular, Menlo, Consolas, 'Liberation Mono', monospace">=</text>
  <text x="758.0" y="190.0" font-size="10" fill="#4F7A4A" font-family="ui-monospace, SFMono-Regular, Menlo, Consolas, 'Liberation Mono', monospace">"2027-01"</text>
  <text x="686.0" y="207.0" font-size="10" fill="#9A6B2F" font-family="ui-monospace, SFMono-Regular, Menlo, Consolas, 'Liberation Mono', monospace">  relocate</text>
  <text x="746.0" y="207.0" font-size="10" fill="#8A8578" font-family="ui-monospace, SFMono-Regular, Menlo, Consolas, 'Liberation Mono', monospace">={</text>
  <text x="758.0" y="207.0" font-size="10" fill="#4F7A4A" font-family="ui-monospace, SFMono-Regular, Menlo, Consolas, 'Liberation Mono', monospace">true</text>
  <text x="782.0" y="207.0" font-size="10" fill="#8A8578" font-family="ui-monospace, SFMono-Regular, Menlo, Consolas, 'Liberation Mono', monospace">}</text>
  <text x="686.0" y="224.0" font-size="10" fill="#8A8578" font-family="ui-monospace, SFMono-Regular, Menlo, Consolas, 'Liberation Mono', monospace">/&gt;</text>
  </g>
</svg>
