<svg xmlns="http://www.w3.org/2000/svg" width="240" height="205" viewBox="0 0 240 205" role="img" aria-label="535 unit tests, one project.">
  <defs>
    <filter id="grain" x="0" y="0" width="100%" height="100%">
      <feTurbulence type="fractalNoise" baseFrequency="0.95" numOctaves="4" seed="31" result="n"/>
      <feColorMatrix in="n" type="saturate" values="0"/>
      <feComponentTransfer><feFuncA type="linear" slope="0.05"/></feComponentTransfer>
    </filter>
    <filter id="elev" x="-18%" y="-22%" width="136%" height="150%">
      <feDropShadow in="SourceGraphic" dx="0" dy="1" stdDeviation="1.2" flood-color="#3A3226" flood-opacity="0.10" result="s1"/>
      <feDropShadow in="s1" dx="0" dy="7" stdDeviation="10" flood-color="#3A3226" flood-opacity="0.13"/>
    </filter>
    <filter id="raise" x="-30%" y="-40%" width="160%" height="180%">
      <feDropShadow dx="0" dy="1" stdDeviation="1.6" flood-color="#3A3226" flood-opacity="0.16"/>
    </filter>
    <pattern id="laid" width="5" height="5" patternUnits="userSpaceOnUse">
      <line x1="0" y1="0.5" x2="5" y2="0.5" stroke="#6B5F45" stroke-opacity="0.04" stroke-width="0.6"/>
    </pattern>
  </defs>
  <g font-family="Georgia, 'Times New Roman', serif">
  <path d="M 14.00,36.00 L 14.04,27.31 L 14.17,24.56 L 14.38,22.59 L 14.69,21.02 L 15.08,19.72 L 15.57,18.61 L 16.15,17.66 L 16.85,16.85 L 17.66,16.15 L 18.61,15.57 L 19.72,15.08 L 21.02,14.69 L 22.59,14.38 L 24.56,14.17 L 27.31,14.04 L 36.00,14.00 L 204.00,14.00 L 212.69,14.04 L 215.44,14.17 L 217.41,14.38 L 218.98,14.69 L 220.28,15.08 L 221.39,15.57 L 222.34,16.15 L 223.15,16.85 L 223.85,17.66 L 224.43,18.61 L 224.92,19.72 L 225.31,21.02 L 225.62,22.59 L 225.83,24.56 L 225.96,27.31 L 226.00,36.00 L 226.00,169.00 L 225.96,177.69 L 225.83,180.44 L 225.62,182.41 L 225.31,183.98 L 224.92,185.28 L 224.43,186.39 L 223.85,187.34 L 223.15,188.15 L 222.34,188.85 L 221.39,189.43 L 220.28,189.92 L 218.98,190.31 L 217.41,190.62 L 215.44,190.83 L 212.69,190.96 L 204.00,191.00 L 36.00,191.00 L 27.31,190.96 L 24.56,190.83 L 22.59,190.62 L 21.02,190.31 L 19.72,189.92 L 18.61,189.43 L 17.66,188.85 L 16.85,188.15 L 16.15,187.34 L 15.57,186.39 L 15.08,185.28 L 14.69,183.98 L 14.38,182.41 L 14.17,180.44 L 14.04,177.69 L 14.00,169.00 Z" fill="#FBF7EE" filter="url(#elev)"/>
  <clipPath id="clips0"><path d="M 14.00,36.00 L 14.04,27.31 L 14.17,24.56 L 14.38,22.59 L 14.69,21.02 L 15.08,19.72 L 15.57,18.61 L 16.15,17.66 L 16.85,16.85 L 17.66,16.15 L 18.61,15.57 L 19.72,15.08 L 21.02,14.69 L 22.59,14.38 L 24.56,14.17 L 27.31,14.04 L 36.00,14.00 L 204.00,14.00 L 212.69,14.04 L 215.44,14.17 L 217.41,14.38 L 218.98,14.69 L 220.28,15.08 L 221.39,15.57 L 222.34,16.15 L 223.15,16.85 L 223.85,17.66 L 224.43,18.61 L 224.92,19.72 L 225.31,21.02 L 225.62,22.59 L 225.83,24.56 L 225.96,27.31 L 226.00,36.00 L 226.00,169.00 L 225.96,177.69 L 225.83,180.44 L 225.62,182.41 L 225.31,183.98 L 224.92,185.28 L 224.43,186.39 L 223.85,187.34 L 223.15,188.15 L 222.34,188.85 L 221.39,189.43 L 220.28,189.92 L 218.98,190.31 L 217.41,190.62 L 215.44,190.83 L 212.69,190.96 L 204.00,191.00 L 36.00,191.00 L 27.31,190.96 L 24.56,190.83 L 22.59,190.62 L 21.02,190.31 L 19.72,189.92 L 18.61,189.43 L 17.66,188.85 L 16.85,188.15 L 16.15,187.34 L 15.57,186.39 L 15.08,185.28 L 14.69,183.98 L 14.38,182.41 L 14.17,180.44 L 14.04,177.69 L 14.00,169.00 Z"/></clipPath>
  <g clip-path="url(#clips0)">
  <rect x="14" y="14" width="212" height="177" fill="url(#laid)"/>
  <rect x="14" y="14" width="212" height="177" filter="url(#grain)"/>
  <line x1="14.0" y1="15.2" x2="226.0" y2="15.2" stroke="#FFFEFA" stroke-width="1.4"/>
  <line x1="14.0" y1="189.8" x2="226.0" y2="189.8" stroke="#DFD5C0" stroke-width="1.4"/>
  </g>
  <path d="M 14.00,36.00 L 14.04,27.31 L 14.17,24.56 L 14.38,22.59 L 14.69,21.02 L 15.08,19.72 L 15.57,18.61 L 16.15,17.66 L 16.85,16.85 L 17.66,16.15 L 18.61,15.57 L 19.72,15.08 L 21.02,14.69 L 22.59,14.38 L 24.56,14.17 L 27.31,14.04 L 36.00,14.00 L 204.00,14.00 L 212.69,14.04 L 215.44,14.17 L 217.41,14.38 L 218.98,14.69 L 220.28,15.08 L 221.39,15.57 L 222.34,16.15 L 223.15,16.85 L 223.85,17.66 L 224.43,18.61 L 224.92,19.72 L 225.31,21.02 L 225.62,22.59 L 225.83,24.56 L 225.96,27.31 L 226.00,36.00 L 226.00,169.00 L 225.96,177.69 L 225.83,180.44 L 225.62,182.41 L 225.31,183.98 L 224.92,185.28 L 224.43,186.39 L 223.85,187.34 L 223.15,188.15 L 222.34,188.85 L 221.39,189.43 L 220.28,189.92 L 218.98,190.31 L 217.41,190.62 L 215.44,190.83 L 212.69,190.96 L 204.00,191.00 L 36.00,191.00 L 27.31,190.96 L 24.56,190.83 L 22.59,190.62 L 21.02,190.31 L 19.72,189.92 L 18.61,189.43 L 17.66,188.85 L 16.85,188.15 L 16.15,187.34 L 15.57,186.39 L 15.08,185.28 L 14.69,183.98 L 14.38,182.41 L 14.17,180.44 L 14.04,177.69 L 14.00,169.00 Z" fill="none" stroke="#000000" stroke-opacity="0.06" stroke-width="1"/>
  <text x="44.0" y="40.0" font-size="10.5" fill="#1155CC" font-family="ui-monospace, SFMono-Regular, Menlo, Consolas, 'Liberation Mono', monospace">&lt;StatCard /&gt;</text>
  <text x="196.0" y="39.5" font-size="9.5" fill="#A8563C" font-family="-apple-system, BlinkMacSystemFont, 'Segoe UI', 'Helvetica Neue', Arial, sans-serif" text-anchor="end">[0]</text>
  <line x1="34.0" y1="56.0" x2="206.0" y2="56.0" stroke="#000000" stroke-opacity="0.07" stroke-width="1"/>
  <path d="M 84.51,74.50 L 84.53,70.35 L 84.59,69.04 L 84.69,68.10 L 84.83,67.35 L 85.02,66.73 L 85.25,66.20 L 85.54,65.75 L 85.87,65.36 L 86.25,65.03 L 86.71,64.75 L 87.24,64.51 L 87.86,64.33 L 88.61,64.18 L 89.55,64.08 L 90.86,64.02 L 95.01,64.00 L 144.99,64.00 L 149.14,64.02 L 150.45,64.08 L 151.39,64.18 L 152.14,64.33 L 152.76,64.51 L 153.29,64.75 L 153.75,65.03 L 154.13,65.36 L 154.46,65.75 L 154.75,66.20 L 154.98,66.73 L 155.17,67.35 L 155.31,68.10 L 155.41,69.04 L 155.47,70.35 L 155.49,74.50 L 155.49,74.50 L 155.47,78.65 L 155.41,79.96 L 155.31,80.90 L 155.17,81.65 L 154.98,82.27 L 154.75,82.80 L 154.46,83.25 L 154.13,83.64 L 153.75,83.97 L 153.29,84.25 L 152.76,84.49 L 152.14,84.67 L 151.39,84.82 L 150.45,84.92 L 149.14,84.98 L 144.99,85.00 L 95.01,85.00 L 90.86,84.98 L 89.55,84.92 L 88.61,84.82 L 87.86,84.67 L 87.24,84.49 L 86.71,84.25 L 86.25,83.97 L 85.87,83.64 L 85.54,83.25 L 85.25,82.80 L 85.02,82.27 L 84.83,81.65 L 84.69,80.90 L 84.59,79.96 L 84.53,78.65 L 84.51,74.50 Z" fill="#F1EBDD"/>
  <text x="120.0" y="78.0" font-size="9" fill="#96907F" font-family="-apple-system, BlinkMacSystemFont, 'Segoe UI', 'Helvetica Neue', Arial, sans-serif" text-anchor="middle">one project</text>
  <text x="120.0" y="134.0" font-size="46" fill="#1155CC" font-weight="700" text-anchor="middle">535</text>
  <line x1="102.0" y1="146.0" x2="138.0" y2="146.0" stroke="#A8563C" stroke-width="2"/>
  <text x="120.0" y="162.0" font-size="9" fill="#697176" font-family="-apple-system, BlinkMacSystemFont, 'Segoe UI', 'Helvetica Neue', Arial, sans-serif" text-anchor="middle" letter-spacing="1.5">UNIT TESTS</text>
  </g>
</svg>
